<?xml version="1.0" ?><svg xmlns="http://www.w3.org/2000/svg" xmlns:xlink="http://www.w3.org/1999/xlink" version="1.1" viewBox="0 0 512 512" style="enable-background:new 0 0 512 512;" xml:space="preserve"><g id="_x34_3_x2C__Trophy_x2C__Competition_x2C__Sports_and_Competition_x2C__Winner_x2C__Award_x2C__Star_x2C__Prize_x2C__Best"><g><path style="fill:#FFFFFF;" d="M351.39,431.67v30.17L254.2,471l-93.59-9.16v-30.17c0-5.52,4.48-10,10-10h20.12L256,410.6    l65.27,11.07h20.12C346.91,421.67,351.39,426.15,351.39,431.67z"/><polygon style="fill:#FFFFFF;" points="220.86,306.44 220.86,351.39 256,368.2 291.14,351.39 291.14,306.44   "/><path style="fill:#9DCAFC;" d="M321.27,371.39v50.28H190.73v-50.28c0-11.05,8.96-20,20-20h10.13h70.28h10.13    C312.31,351.39,321.27,360.34,321.27,371.39z"/><path style="fill:#9DCAFC;" d="M391.55,471.84V492c0,5.52-4.48,10-10,10h-251.1c-5.52,0-10-4.48-10-10v-20.16    c0-5.53,4.48-10,10-10h30.16h190.78h30.16C387.07,461.84,391.55,466.31,391.55,471.84z"/><path style="fill:#FFFFFF;" d="M376.57,230.77c-15.23,36.65-46.7,64.86-85.43,75.67c-11.18,3.11-22.97,4.78-35.14,4.78    c-12.17,0-23.96-1.67-35.14-4.78c-38.73-10.81-70.2-39.02-85.43-75.67c-0.8-1.93-1.56-3.88-2.27-5.85    c-0.71-1.97-1.37-3.97-1.99-5.98c-0.31-1.01-0.6-2.02-0.89-3.04c-0.28-1.02-0.56-2.04-0.82-3.07c-0.62-2.45-1.17-4.93-1.65-7.43    c-0.13-0.65-0.25-1.3-0.36-1.95c-0.09-0.53-0.18-1.06-0.27-1.59c-0.08-0.53-0.17-1.06-0.25-1.59c-0.16-1.07-0.31-2.14-0.44-3.21    c-0.07-0.53-0.13-1.07-0.19-1.61c-0.11-0.92-0.2-1.85-0.28-2.78c-0.07-0.7-0.13-1.39-0.18-2.09c-0.08-1.09-0.15-2.18-0.2-3.28    c-0.02-0.23-0.03-0.45-0.03-0.67c-0.04-0.76-0.07-1.53-0.09-2.29c-0.03-1.21-0.05-2.43-0.05-3.65V90.33V50.16L262.2,31    l124.33,19.16v40.17v90.36c0,1.22-0.02,2.44-0.05,3.65c-0.02,0.76-0.05,1.53-0.09,2.29c0,0.22-0.01,0.44-0.03,0.67    c-0.05,1.1-0.12,2.19-0.2,3.28c-0.05,0.7-0.11,1.39-0.18,2.09c-0.08,0.93-0.17,1.86-0.28,2.78c-0.06,0.54-0.12,1.08-0.19,1.61    c-0.13,1.07-0.28,2.14-0.44,3.21c-0.08,0.53-0.17,1.06-0.25,1.59c-0.09,0.53-0.18,1.06-0.27,1.59c-0.11,0.65-0.23,1.3-0.36,1.95    c-0.48,2.5-1.03,4.98-1.65,7.43c-0.26,1.03-0.54,2.05-0.82,3.07c-0.29,1.02-0.58,2.03-0.89,3.04c-0.62,2.01-1.28,4.01-1.99,5.98    S377.37,228.84,376.57,230.77z"/><polygon style="fill:#FFFFFF;" points="324.58,165.21 282.2,196.01 298.39,245.84 256,215.04 213.61,245.84 229.8,196.01     187.42,165.21 239.81,165.21 256,115.39 272.19,165.21   "/><path style="fill:#FFFFFF;" d="M386.53,10c11.09,0,20.08,8.99,20.08,20.08c0,5.54-2.25,10.56-5.88,14.2    c-3.63,3.63-8.65,5.88-14.2,5.88H125.47c-11.09,0-20.08-8.99-20.08-20.08c0-5.54,2.25-10.56,5.88-14.2    c3.63-3.63,8.65-5.88,14.2-5.88H386.53z"/><g><path style="fill:#4269A7;" d="M383.257,240.269c55.781-5.9,98.62-52.972,98.62-109.779c0-27.66-22.504-50.164-50.164-50.164     H396.53V58.448c11.685-4.132,20.082-15.284,20.082-28.365C416.612,13.495,403.117,0,386.53,0H125.469     c-16.587,0-30.082,13.495-30.082,30.082c0,13.082,8.397,24.234,20.082,28.365v21.879H80.285     c-27.66,0-50.163,22.504-50.163,50.164c0,56.806,42.839,103.879,98.619,109.779c16.153,34.366,45.818,61.173,82.115,73.518     v27.601h-0.122c-16.542,0-30,13.458-30,30v40.286h-10.123c-11.028,0-20,8.972-20,20v20.163h-20.163c-11.028,0-20,8.972-20,20V492     c0,11.028,8.972,20,20,20h251.102c11.028,0,20-8.972,20-20v-20.163c0-11.028-8.972-20-20-20h-20.163v-20.163     c0-11.028-8.972-20-20-20h-10.122v-40.286c0-16.542-13.458-30-30-30h-0.123v-27.601     C337.439,301.442,367.104,274.635,383.257,240.269z M431.714,100.326c16.633,0,30.164,13.531,30.164,30.164     c0,42.992-29.96,79.18-70.555,88.23c6.75-24.017,5.177-33.359,5.207-118.395H431.714z M125.469,20H386.53     c5.56,0,10.082,4.522,10.082,10.082c0,5.559-4.522,10.081-10.082,10.081H125.469c-5.559,0-10.082-4.522-10.082-10.081     C115.387,24.522,119.91,20,125.469,20z M120.677,218.721c-40.595-9.051-70.554-45.238-70.554-88.23     c0-16.633,13.531-30.164,30.163-30.164h35.184C115.499,187.092,114.046,195.137,120.677,218.721z M135.625,186.867     c-0.229-4.522-0.156,0.862-0.156-126.704H376.53c0,127.61,0.075,122.385-0.169,126.906     C373.036,250.578,320.323,301.225,256,301.225C191.348,301.225,138.777,250.138,135.625,186.867z M381.551,492H130.449v-20.163     c20.084,0,243.165,0,251.102,0V492z M341.387,451.837H170.612v-20.163c39.944,0,137.261,0,170.775,0V451.837z M311.265,371.388     v40.286H200.735v-40.286c0-5.514,4.486-10,10-10h90.531C306.779,361.388,311.265,365.874,311.265,371.388z M281.142,341.388     h-50.286v-22.419c16.575,3.006,33.678,3.012,50.286,0V341.388z"/><path style="fill:#4269A7;" d="M292.508,253.927c3.506,2.547,8.25,2.547,11.756,0c3.505-2.546,4.972-7.06,3.633-11.18     l-13.944-42.918l36.508-26.524c3.505-2.546,4.972-7.06,3.633-11.18s-5.179-6.91-9.511-6.91h-45.126l-13.945-42.917     c-1.339-4.121-5.179-6.91-9.511-6.91c-4.333,0-8.172,2.79-9.511,6.91l-13.945,42.917h-45.126c-4.332,0-8.172,2.79-9.511,6.91     c-1.338,4.12,0.128,8.634,3.633,11.18l36.508,26.524l-13.945,42.918c-1.338,4.12,0.128,8.634,3.633,11.18     c3.505,2.546,8.25,2.548,11.756,0L256,227.402L292.508,253.927z M250.122,206.952l-17.487,12.704l6.68-20.557     c1.338-4.12-0.128-8.634-3.633-11.18l-17.487-12.705h21.615c4.332,0,8.172-2.79,9.511-6.91L256,147.748l6.68,20.557     c1.339,4.121,5.179,6.91,9.511,6.91h21.614l-17.486,12.705c-3.505,2.546-4.972,7.06-3.633,11.18l6.68,20.558l-17.487-12.705     C258.372,204.405,253.627,204.405,250.122,206.952z"/></g></g></g><g id="Layer_1"/></svg>