<?xml version="1.0" ?><svg viewBox="0 0 128 128" xmlns="http://www.w3.org/2000/svg"><defs><style>.cls-1{fill:#0083ca;}.cls-2{fill:#5bc9e1;}.cls-3{fill:#fff;}.cls-4{fill:#314967;}</style></defs><title/><g data-name="01 Shopping Cart" id="_01_Shopping_Cart"><rect class="cls-1" height="15" rx="4" ry="4" width="96" x="16" y="49"/><path class="cls-2" d="M96,52.82,65.2,22c-3.86-3.86,1.94-9.68,5.81-5.81L101.82,47C105.69,50.88,99.88,56.69,96,52.82Zm-64,0L62.8,22c3.86-3.86-1.94-9.68-5.81-5.81L26.18,47C22.31,50.88,28.12,56.69,32,52.82Z"/><path class="cls-2" d="M109,64H19l8.36,41.78A4,4,0,0,0,31.28,109H96.72a4,4,0,0,0,3.92-3.22Z"/><path class="cls-3" d="M64,100.38a6,6,0,0,1-6-6V78.64a6,6,0,0,1,12,0V94.36A6,6,0,0,1,64,100.38Zm26.06-6V78.64a6,6,0,0,0-12,0V94.36a6,6,0,0,0,12,0ZM50,94.36V78.64a6,6,0,0,0-12,0V94.36a6,6,0,0,0,12,0Z"/><path class="cls-4" d="M108,47a2,2,0,0,0,0,4,2,2,0,0,1,2,2v7a2,2,0,0,1-2,2H20a2,2,0,0,1-2-2V53a2,2,0,0,1,2-2h3.73A6,6,0,0,0,34,54.15L64,23.48,79.26,39.09,87,47H75.06a2,2,0,0,0,0,4H90.9L94,54.15a6.06,6.06,0,1,0,8.67-8.48L72.54,14.87A6.06,6.06,0,0,0,64,14.74,6,6,0,0,0,59.8,13h0c-3.13,0-4.35,1.84-7.44,5a2,2,0,0,0,2.86,2.8l3.11-3.18a2.06,2.06,0,0,1,2.95,2.88L31.16,51.36a2.06,2.06,0,0,1-2.95-2.88l23.2-23.74a2,2,0,0,0-2.86-2.8L25.35,45.68A5.91,5.91,0,0,0,24.4,47H20a6,6,0,0,0-6,6v7a6,6,0,0,0,6,6h86.56l-7.88,39.39a2,2,0,0,1-2,1.61H31.28a2,2,0,0,1-2-1.61L22.18,69.72a2,2,0,0,0-3.92.78l7.13,35.67A6,6,0,0,0,31.28,111H96.72a6,6,0,0,0,5.88-4.82l8.17-40.86A6,6,0,0,0,114,60V53A6,6,0,0,0,108,47ZM69.68,17.67,99.79,48.48a2.06,2.06,0,0,1-2.95,2.88L82.12,36.29,66.73,20.55C64.8,18.58,67.81,15.75,69.68,17.67Z"/><path class="cls-4" d="M44,47a2,2,0,0,0,0,4H67.67a2,2,0,0,0,0-4Z"/><path class="cls-4" d="M35.94,86.5v7.86a8,8,0,1,0,16,0V78.64a8,8,0,0,0-16-.24,2,2,0,0,0,4,.12c.16-5.26,8-5.1,8,.12V94.36a4,4,0,1,1-8,0V86.5A2,2,0,0,0,35.94,86.5Z"/><path class="cls-4" d="M56,90.52v3.84a8,8,0,0,0,16,0V78.64a8,8,0,0,0-16,0v3.84a2,2,0,0,0,4,0V78.64a4,4,0,0,1,8,0V94.36a4,4,0,0,1-8,0V90.52A2,2,0,0,0,56,90.52Z"/><path class="cls-4" d="M92.06,86.32V78.64a8,8,0,1,0-16,0V94.36a8,8,0,1,0,16,0,2,2,0,0,0-4,0,4,4,0,1,1-8,0V78.64a4,4,0,1,1,8,0v7.68A2,2,0,0,0,92.06,86.32Z"/></g></svg>