<?xml version="1.0" ?><!DOCTYPE svg  PUBLIC '-//W3C//DTD SVG 1.1//EN'  'http://www.w3.org/Graphics/SVG/1.1/DTD/svg11.dtd'><svg enable-background="new 0 0 128 128" id="Layer_1" version="1.1" viewBox="0 0 128 128" xml:space="preserve" xmlns="http://www.w3.org/2000/svg" xmlns:xlink="http://www.w3.org/1999/xlink"><rect fill="#E875AE" height="85" width="61" x="48" y="19"/><rect fill="none" height="85" stroke="#3D3D3D" stroke-miterlimit="10" stroke-width="2" width="61" x="48" y="19"/><path d="M42.7,104h3.8c0.7,0,1.4-0.8,1.4-1.5V20c0-0.7-0.7-1-1.4-1h-3.8c-2.1,0-3.7,1.4-3.7,3.5V100  C39,102,40.7,104,42.7,104z" fill="#DD3B86"/><rect fill="#3D3D3D" height="85" width="4" x="97" y="20"/><path d="M71,103.5c0,0,0.4,5.9-3,8.9  s-7.6,4.2-7.6,4.2" fill="none" stroke="#3D3D3D" stroke-linecap="round" stroke-miterlimit="10" stroke-width="2"/><rect fill="#DD3B86" height="85" width="27" x="48" y="19"/><g><defs><rect height="85" id="SVGID_7_" width="27" x="48" y="19"/></defs><clipPath id="SVGID_2_"><use overflow="visible" xlink:href="#SVGID_7_"/></clipPath><path clip-path="url(#SVGID_2_)" d="M48.3,98.7c0,2.8,2.3,5.1,5.1,5.1C53.3,100.9,51.1,98.7,48.3,98.7z" fill="#E875AE"/><path clip-path="url(#SVGID_2_)" d="M58.4,98.7c-2.8,0-5.1,2.3-5.1,5.1C56.1,103.7,58.4,101.4,58.4,98.7z" fill="#E875AE"/><path clip-path="url(#SVGID_2_)" d="M53.3,103.7c0,2.8,2.3,5.1,5.1,5.1C58.4,106,56.1,103.7,53.3,103.7z" fill="#E875AE"/><path clip-path="url(#SVGID_2_)" d="M53.3,103.7c-2.8,0-5.1,2.3-5.1,5.1C51.1,108.8,53.3,106.5,53.3,103.7z" fill="#E875AE"/><path clip-path="url(#SVGID_2_)" d="M38.1,98.7c0,2.8,2.3,5.1,5.1,5.1C43.2,100.9,40.9,98.7,38.1,98.7z" fill="#E875AE"/><path clip-path="url(#SVGID_2_)" d="M48.3,98.7c-2.8,0-5.1,2.3-5.1,5.1C46,103.7,48.3,101.4,48.3,98.7z" fill="#E875AE"/><path clip-path="url(#SVGID_2_)" d="M43.2,103.7c0,2.8,2.3,5.1,5.1,5.1C48.3,106,46,103.7,43.2,103.7z" fill="#E875AE"/><path clip-path="url(#SVGID_2_)" d="M43.2,103.7c-2.8,0-5.1,2.3-5.1,5.1C40.9,108.8,43.2,106.5,43.2,103.7z" fill="#E875AE"/><path clip-path="url(#SVGID_2_)" d="M58.4,98.7c0,2.8,2.3,5.1,5.1,5.1C63.4,100.9,61.2,98.7,58.4,98.7z" fill="#E875AE"/><path clip-path="url(#SVGID_2_)" d="M68.5,98.7c-2.8,0-5.1,2.3-5.1,5.1C66.2,103.7,68.5,101.4,68.5,98.7z" fill="#E875AE"/><path clip-path="url(#SVGID_2_)" d="M63.4,103.7c0,2.8,2.3,5.1,5.1,5.1C68.5,106,66.2,103.7,63.4,103.7z" fill="#E875AE"/><path clip-path="url(#SVGID_2_)" d="M63.4,103.7c-2.8,0-5.1,2.3-5.1,5.1C61.2,108.8,63.4,106.5,63.4,103.7z" fill="#E875AE"/><path clip-path="url(#SVGID_2_)" d="M68.5,98.7c0,2.8,2.3,5.1,5.1,5.1C73.6,100.9,71.3,98.7,68.5,98.7z" fill="#E875AE"/><path clip-path="url(#SVGID_2_)" d="M78.6,98.7c-2.8,0-5.1,2.3-5.1,5.1C76.3,103.7,78.6,101.4,78.6,98.7z" fill="#E875AE"/><path clip-path="url(#SVGID_2_)" d="M73.6,103.7c0,2.8,2.3,5.1,5.1,5.1C78.6,106,76.3,103.7,73.6,103.7z" fill="#E875AE"/><path clip-path="url(#SVGID_2_)" d="M73.6,103.7c-2.8,0-5.1,2.3-5.1,5.1C71.3,108.8,73.6,106.5,73.6,103.7z" fill="#E875AE"/><path clip-path="url(#SVGID_2_)" d="M48.3,88.5c0,2.8,2.3,5.1,5.1,5.1C53.3,90.8,51.1,88.5,48.3,88.5z" fill="#E875AE"/><path clip-path="url(#SVGID_2_)" d="M58.4,88.5c-2.8,0-5.1,2.3-5.1,5.1C56.1,93.6,58.4,91.3,58.4,88.5z" fill="#E875AE"/><path clip-path="url(#SVGID_2_)" d="M53.3,93.6c0,2.8,2.3,5.1,5.1,5.1C58.4,95.9,56.1,93.6,53.3,93.6z" fill="#E875AE"/><path clip-path="url(#SVGID_2_)" d="M53.3,93.6c-2.8,0-5.1,2.3-5.1,5.1C51.1,98.7,53.3,96.4,53.3,93.6z" fill="#E875AE"/><path clip-path="url(#SVGID_2_)" d="M38.1,88.5c0,2.8,2.3,5.1,5.1,5.1C43.2,90.8,40.9,88.5,38.1,88.5z" fill="#E875AE"/><path clip-path="url(#SVGID_2_)" d="M48.3,88.5c-2.8,0-5.1,2.3-5.1,5.1C46,93.6,48.3,91.3,48.3,88.5z" fill="#E875AE"/><path clip-path="url(#SVGID_2_)" d="M43.2,93.6c0,2.8,2.3,5.1,5.1,5.1C48.3,95.9,46,93.6,43.2,93.6z" fill="#E875AE"/><path clip-path="url(#SVGID_2_)" d="M43.2,93.6c-2.8,0-5.1,2.3-5.1,5.1C40.9,98.7,43.2,96.4,43.2,93.6z" fill="#E875AE"/><path clip-path="url(#SVGID_2_)" d="M58.4,88.5c0,2.8,2.3,5.1,5.1,5.1C63.4,90.8,61.2,88.5,58.4,88.5z" fill="#E875AE"/><path clip-path="url(#SVGID_2_)" d="M68.5,88.5c-2.8,0-5.1,2.3-5.1,5.1C66.2,93.6,68.5,91.3,68.5,88.5z" fill="#E875AE"/><path clip-path="url(#SVGID_2_)" d="M63.4,93.6c0,2.8,2.3,5.1,5.1,5.1C68.5,95.9,66.2,93.6,63.4,93.6z" fill="#E875AE"/><path clip-path="url(#SVGID_2_)" d="M63.4,93.6c-2.8,0-5.1,2.3-5.1,5.1C61.2,98.7,63.4,96.4,63.4,93.6z" fill="#E875AE"/><path clip-path="url(#SVGID_2_)" d="M68.5,88.5c0,2.8,2.3,5.1,5.1,5.1C73.6,90.8,71.3,88.5,68.5,88.5z" fill="#E875AE"/><path clip-path="url(#SVGID_2_)" d="M78.6,88.5c-2.8,0-5.1,2.3-5.1,5.1C76.3,93.6,78.6,91.3,78.6,88.5z" fill="#E875AE"/><path clip-path="url(#SVGID_2_)" d="M73.6,93.6c0,2.8,2.3,5.1,5.1,5.1C78.6,95.9,76.3,93.6,73.6,93.6z" fill="#E875AE"/><path clip-path="url(#SVGID_2_)" d="M73.6,93.6c-2.8,0-5.1,2.3-5.1,5.1C71.3,98.7,73.6,96.4,73.6,93.6z" fill="#E875AE"/><path clip-path="url(#SVGID_2_)" d="M48.3,78.4c0,2.8,2.3,5.1,5.1,5.1C53.3,80.7,51.1,78.4,48.3,78.4z" fill="#E875AE"/><path clip-path="url(#SVGID_2_)" d="M58.4,78.4c-2.8,0-5.1,2.3-5.1,5.1C56.1,83.5,58.4,81.2,58.4,78.4z" fill="#E875AE"/><path clip-path="url(#SVGID_2_)" d="M53.3,83.5c0,2.8,2.3,5.1,5.1,5.1C58.4,85.7,56.1,83.5,53.3,83.5z" fill="#E875AE"/><path clip-path="url(#SVGID_2_)" d="M53.3,83.5c-2.8,0-5.1,2.3-5.1,5.1C51.1,88.5,53.3,86.3,53.3,83.5z" fill="#E875AE"/><path clip-path="url(#SVGID_2_)" d="M38.1,78.4c0,2.8,2.3,5.1,5.1,5.1C43.2,80.7,40.9,78.4,38.1,78.4z" fill="#E875AE"/><path clip-path="url(#SVGID_2_)" d="M48.3,78.4c-2.8,0-5.1,2.3-5.1,5.1C46,83.5,48.3,81.2,48.3,78.4z" fill="#E875AE"/><path clip-path="url(#SVGID_2_)" d="M43.2,83.5c0,2.8,2.3,5.1,5.1,5.1C48.3,85.7,46,83.5,43.2,83.5z" fill="#E875AE"/><path clip-path="url(#SVGID_2_)" d="M43.2,83.5c-2.8,0-5.1,2.3-5.1,5.1C40.9,88.5,43.2,86.3,43.2,83.5z" fill="#E875AE"/><path clip-path="url(#SVGID_2_)" d="M58.4,78.4c0,2.8,2.3,5.1,5.1,5.1C63.4,80.7,61.2,78.4,58.4,78.4z" fill="#E875AE"/><path clip-path="url(#SVGID_2_)" d="M68.5,78.4c-2.8,0-5.1,2.3-5.1,5.1C66.2,83.5,68.5,81.2,68.5,78.4z" fill="#E875AE"/><path clip-path="url(#SVGID_2_)" d="M63.4,83.5c0,2.8,2.3,5.1,5.1,5.1C68.5,85.7,66.2,83.5,63.4,83.5z" fill="#E875AE"/><path clip-path="url(#SVGID_2_)" d="M63.4,83.5c-2.8,0-5.1,2.3-5.1,5.1C61.2,88.5,63.4,86.3,63.4,83.5z" fill="#E875AE"/><path clip-path="url(#SVGID_2_)" d="M68.5,78.4c0,2.8,2.3,5.1,5.1,5.1C73.6,80.7,71.3,78.4,68.5,78.4z" fill="#E875AE"/><path clip-path="url(#SVGID_2_)" d="M78.6,78.4c-2.8,0-5.1,2.3-5.1,5.1C76.3,83.5,78.6,81.2,78.6,78.4z" fill="#E875AE"/><path clip-path="url(#SVGID_2_)" d="M73.6,83.5c0,2.8,2.3,5.1,5.1,5.1C78.6,85.7,76.3,83.5,73.6,83.5z" fill="#E875AE"/><path clip-path="url(#SVGID_2_)" d="M73.6,83.5c-2.8,0-5.1,2.3-5.1,5.1C71.3,88.5,73.6,86.3,73.6,83.5z" fill="#E875AE"/><path clip-path="url(#SVGID_2_)" d="M48.3,68.3c0,2.8,2.3,5.1,5.1,5.1C53.3,70.6,51.1,68.3,48.3,68.3z" fill="#E875AE"/><path clip-path="url(#SVGID_2_)" d="M58.4,68.3c-2.8,0-5.1,2.3-5.1,5.1C56.1,73.4,58.4,71.1,58.4,68.3z" fill="#E875AE"/><path clip-path="url(#SVGID_2_)" d="M53.3,73.4c0,2.8,2.3,5.1,5.1,5.1C58.4,75.6,56.1,73.4,53.3,73.4z" fill="#E875AE"/><path clip-path="url(#SVGID_2_)" d="M53.3,73.4c-2.8,0-5.1,2.3-5.1,5.1C51.1,78.4,53.3,76.2,53.3,73.4z" fill="#E875AE"/><path clip-path="url(#SVGID_2_)" d="M38.1,68.3c0,2.8,2.3,5.1,5.1,5.1C43.2,70.6,40.9,68.3,38.1,68.3z" fill="#E875AE"/><path clip-path="url(#SVGID_2_)" d="M48.3,68.3c-2.8,0-5.1,2.3-5.1,5.1C46,73.4,48.3,71.1,48.3,68.3z" fill="#E875AE"/><path clip-path="url(#SVGID_2_)" d="M43.2,73.4c0,2.8,2.3,5.1,5.1,5.1C48.3,75.6,46,73.4,43.2,73.4z" fill="#E875AE"/><path clip-path="url(#SVGID_2_)" d="M43.2,73.4c-2.8,0-5.1,2.3-5.1,5.1C40.9,78.4,43.2,76.2,43.2,73.4z" fill="#E875AE"/><path clip-path="url(#SVGID_2_)" d="M58.4,68.3c0,2.8,2.3,5.1,5.1,5.1C63.4,70.6,61.2,68.3,58.4,68.3z" fill="#E875AE"/><path clip-path="url(#SVGID_2_)" d="M68.5,68.3c-2.8,0-5.1,2.3-5.1,5.1C66.2,73.4,68.5,71.1,68.5,68.3z" fill="#E875AE"/><path clip-path="url(#SVGID_2_)" d="M63.4,73.4c0,2.8,2.3,5.1,5.1,5.1C68.5,75.6,66.2,73.4,63.4,73.4z" fill="#E875AE"/><path clip-path="url(#SVGID_2_)" d="M63.4,73.4c-2.8,0-5.1,2.3-5.1,5.1C61.2,78.4,63.4,76.2,63.4,73.4z" fill="#E875AE"/><path clip-path="url(#SVGID_2_)" d="M68.5,68.3c0,2.8,2.3,5.1,5.1,5.1C73.6,70.6,71.3,68.3,68.5,68.3z" fill="#E875AE"/><path clip-path="url(#SVGID_2_)" d="M78.6,68.3c-2.8,0-5.1,2.3-5.1,5.1C76.3,73.4,78.6,71.1,78.6,68.3z" fill="#E875AE"/><path clip-path="url(#SVGID_2_)" d="M73.6,73.4c0,2.8,2.3,5.1,5.1,5.1C78.6,75.6,76.3,73.4,73.6,73.4z" fill="#E875AE"/><path clip-path="url(#SVGID_2_)" d="M73.6,73.4c-2.8,0-5.1,2.3-5.1,5.1C71.3,78.4,73.6,76.2,73.6,73.4z" fill="#E875AE"/><path clip-path="url(#SVGID_2_)" d="M48.3,58.2c0,2.8,2.3,5.1,5.1,5.1C53.3,60.4,51.1,58.2,48.3,58.2z" fill="#E875AE"/><path clip-path="url(#SVGID_2_)" d="M58.4,58.2c-2.8,0-5.1,2.3-5.1,5.1C56.1,63.2,58.4,61,58.4,58.2z" fill="#E875AE"/><path clip-path="url(#SVGID_2_)" d="M53.3,63.2c0,2.8,2.3,5.1,5.1,5.1C58.4,65.5,56.1,63.2,53.3,63.2z" fill="#E875AE"/><path clip-path="url(#SVGID_2_)" d="M53.3,63.2c-2.8,0-5.1,2.3-5.1,5.1C51.1,68.3,53.3,66,53.3,63.2z" fill="#E875AE"/><path clip-path="url(#SVGID_2_)" d="M38.1,58.2c0,2.8,2.3,5.1,5.1,5.1C43.2,60.4,40.9,58.2,38.1,58.2z" fill="#E875AE"/><path clip-path="url(#SVGID_2_)" d="M48.3,58.2c-2.8,0-5.1,2.3-5.1,5.1C46,63.2,48.3,61,48.3,58.2z" fill="#E875AE"/><path clip-path="url(#SVGID_2_)" d="M43.2,63.2c0,2.8,2.3,5.1,5.1,5.1C48.3,65.5,46,63.2,43.2,63.2z" fill="#E875AE"/><path clip-path="url(#SVGID_2_)" d="M43.2,63.2c-2.8,0-5.1,2.3-5.1,5.1C40.9,68.3,43.2,66,43.2,63.2z" fill="#E875AE"/><path clip-path="url(#SVGID_2_)" d="M58.4,58.2c0,2.8,2.3,5.1,5.1,5.1C63.4,60.4,61.2,58.2,58.4,58.2z" fill="#E875AE"/><path clip-path="url(#SVGID_2_)" d="M68.5,58.2c-2.8,0-5.1,2.3-5.1,5.1C66.2,63.2,68.5,61,68.5,58.2z" fill="#E875AE"/><path clip-path="url(#SVGID_2_)" d="M63.4,63.2c0,2.8,2.3,5.1,5.1,5.1C68.5,65.5,66.2,63.2,63.4,63.2z" fill="#E875AE"/><path clip-path="url(#SVGID_2_)" d="M63.4,63.2c-2.8,0-5.1,2.3-5.1,5.1C61.2,68.3,63.4,66,63.4,63.2z" fill="#E875AE"/><path clip-path="url(#SVGID_2_)" d="M68.5,58.2c0,2.8,2.3,5.1,5.1,5.1C73.6,60.4,71.3,58.2,68.5,58.2z" fill="#E875AE"/><path clip-path="url(#SVGID_2_)" d="M78.6,58.2c-2.8,0-5.1,2.3-5.1,5.1C76.3,63.2,78.6,61,78.6,58.2z" fill="#E875AE"/><path clip-path="url(#SVGID_2_)" d="M73.6,63.2c0,2.8,2.3,5.1,5.1,5.1C78.6,65.5,76.3,63.2,73.6,63.2z" fill="#E875AE"/><path clip-path="url(#SVGID_2_)" d="M73.6,63.2c-2.8,0-5.1,2.3-5.1,5.1C71.3,68.3,73.6,66,73.6,63.2z" fill="#E875AE"/><path clip-path="url(#SVGID_2_)" d="M48.3,48.1c0,2.8,2.3,5.1,5.1,5.1C53.3,50.3,51.1,48.1,48.3,48.1z" fill="#E875AE"/><path clip-path="url(#SVGID_2_)" d="M58.4,48.1c-2.8,0-5.1,2.3-5.1,5.1C56.1,53.1,58.4,50.9,58.4,48.1z" fill="#E875AE"/><path clip-path="url(#SVGID_2_)" d="M53.3,53.1c0,2.8,2.3,5.1,5.1,5.1C58.4,55.4,56.1,53.1,53.3,53.1z" fill="#E875AE"/><path clip-path="url(#SVGID_2_)" d="M53.3,53.1c-2.8,0-5.1,2.3-5.1,5.1C51.1,58.2,53.3,55.9,53.3,53.1z" fill="#E875AE"/><path clip-path="url(#SVGID_2_)" d="M38.1,48.1c0,2.8,2.3,5.1,5.1,5.1C43.2,50.3,40.9,48.1,38.1,48.1z" fill="#E875AE"/><path clip-path="url(#SVGID_2_)" d="M48.3,48.1c-2.8,0-5.1,2.3-5.1,5.1C46,53.1,48.3,50.9,48.3,48.1z" fill="#E875AE"/><path clip-path="url(#SVGID_2_)" d="M43.2,53.1c0,2.8,2.3,5.1,5.1,5.1C48.3,55.4,46,53.1,43.2,53.1z" fill="#E875AE"/><path clip-path="url(#SVGID_2_)" d="M43.2,53.1c-2.8,0-5.1,2.3-5.1,5.1C40.9,58.2,43.2,55.9,43.2,53.1z" fill="#E875AE"/><path clip-path="url(#SVGID_2_)" d="M58.4,48.1c0,2.8,2.3,5.1,5.1,5.1C63.4,50.3,61.2,48.1,58.4,48.1z" fill="#E875AE"/><path clip-path="url(#SVGID_2_)" d="M68.5,48.1c-2.8,0-5.1,2.3-5.1,5.1C66.2,53.1,68.5,50.9,68.5,48.1z" fill="#E875AE"/><path clip-path="url(#SVGID_2_)" d="M63.4,53.1c0,2.8,2.3,5.1,5.1,5.1C68.5,55.4,66.2,53.1,63.4,53.1z" fill="#E875AE"/><path clip-path="url(#SVGID_2_)" d="M63.4,53.1c-2.8,0-5.1,2.3-5.1,5.1C61.2,58.2,63.4,55.9,63.4,53.1z" fill="#E875AE"/><path clip-path="url(#SVGID_2_)" d="M68.5,48.1c0,2.8,2.3,5.1,5.1,5.1C73.6,50.3,71.3,48.1,68.5,48.1z" fill="#E875AE"/><path clip-path="url(#SVGID_2_)" d="M78.6,48.1c-2.8,0-5.1,2.3-5.1,5.1C76.3,53.1,78.6,50.9,78.6,48.1z" fill="#E875AE"/><path clip-path="url(#SVGID_2_)" d="M73.6,53.1c0,2.8,2.3,5.1,5.1,5.1C78.6,55.4,76.3,53.1,73.6,53.1z" fill="#E875AE"/><path clip-path="url(#SVGID_2_)" d="M73.6,53.1c-2.8,0-5.1,2.3-5.1,5.1C71.3,58.2,73.6,55.9,73.6,53.1z" fill="#E875AE"/><path clip-path="url(#SVGID_2_)" d="M48.3,37.9c0,2.8,2.3,5.1,5.1,5.1C53.3,40.2,51.1,37.9,48.3,37.9z" fill="#E875AE"/><path clip-path="url(#SVGID_2_)" d="M58.4,37.9c-2.8,0-5.1,2.3-5.1,5.1C56.1,43,58.4,40.7,58.4,37.9z" fill="#E875AE"/><path clip-path="url(#SVGID_2_)" d="M53.3,43c0,2.8,2.3,5.1,5.1,5.1C58.4,45.3,56.1,43,53.3,43z" fill="#E875AE"/><path clip-path="url(#SVGID_2_)" d="M53.3,43c-2.8,0-5.1,2.3-5.1,5.1C51.1,48.1,53.3,45.8,53.3,43z" fill="#E875AE"/><path clip-path="url(#SVGID_2_)" d="M38.1,37.9c0,2.8,2.3,5.1,5.1,5.1C43.2,40.2,40.9,37.9,38.1,37.9z" fill="#E875AE"/><path clip-path="url(#SVGID_2_)" d="M48.3,37.9c-2.8,0-5.1,2.3-5.1,5.1C46,43,48.3,40.7,48.3,37.9z" fill="#E875AE"/><path clip-path="url(#SVGID_2_)" d="M43.2,43c0,2.8,2.3,5.1,5.1,5.1C48.3,45.3,46,43,43.2,43z" fill="#E875AE"/><path clip-path="url(#SVGID_2_)" d="M43.2,43c-2.8,0-5.1,2.3-5.1,5.1C40.9,48.1,43.2,45.8,43.2,43z" fill="#E875AE"/><path clip-path="url(#SVGID_2_)" d="M58.4,37.9c0,2.8,2.3,5.1,5.1,5.1C63.4,40.2,61.2,37.9,58.4,37.9z" fill="#E875AE"/><path clip-path="url(#SVGID_2_)" d="M68.5,37.9c-2.8,0-5.1,2.3-5.1,5.1C66.2,43,68.5,40.7,68.5,37.9z" fill="#E875AE"/><path clip-path="url(#SVGID_2_)" d="M63.4,43c0,2.8,2.3,5.1,5.1,5.1C68.5,45.3,66.2,43,63.4,43z" fill="#E875AE"/><path clip-path="url(#SVGID_2_)" d="M63.4,43c-2.8,0-5.1,2.3-5.1,5.1C61.2,48.1,63.4,45.8,63.4,43z" fill="#E875AE"/><path clip-path="url(#SVGID_2_)" d="M68.5,37.9c0,2.8,2.3,5.1,5.1,5.1C73.6,40.2,71.3,37.9,68.5,37.9z" fill="#E875AE"/><path clip-path="url(#SVGID_2_)" d="M78.6,37.9c-2.8,0-5.1,2.3-5.1,5.1C76.3,43,78.6,40.7,78.6,37.9z" fill="#E875AE"/><path clip-path="url(#SVGID_2_)" d="M73.6,43c0,2.8,2.3,5.1,5.1,5.1C78.6,45.3,76.3,43,73.6,43z" fill="#E875AE"/><path clip-path="url(#SVGID_2_)" d="M73.6,43c-2.8,0-5.1,2.3-5.1,5.1C71.3,48.1,73.6,45.8,73.6,43z" fill="#E875AE"/><path clip-path="url(#SVGID_2_)" d="M48.3,27.8c0,2.8,2.3,5.1,5.1,5.1C53.3,30.1,51.1,27.8,48.3,27.8z" fill="#E875AE"/><path clip-path="url(#SVGID_2_)" d="M58.4,27.8c-2.8,0-5.1,2.3-5.1,5.1C56.1,32.9,58.4,30.6,58.4,27.8z" fill="#E875AE"/><path clip-path="url(#SVGID_2_)" d="M53.3,32.9c0,2.8,2.3,5.1,5.1,5.1C58.4,35.2,56.1,32.9,53.3,32.9z" fill="#E875AE"/><path clip-path="url(#SVGID_2_)" d="M53.3,32.9c-2.8,0-5.1,2.3-5.1,5.1C51.1,37.9,53.3,35.7,53.3,32.9z" fill="#E875AE"/><path clip-path="url(#SVGID_2_)" d="M38.1,27.8c0,2.8,2.3,5.1,5.1,5.1C43.2,30.1,40.9,27.8,38.1,27.8z" fill="#E875AE"/><path clip-path="url(#SVGID_2_)" d="M48.3,27.8c-2.8,0-5.1,2.3-5.1,5.1C46,32.9,48.3,30.6,48.3,27.8z" fill="#E875AE"/><path clip-path="url(#SVGID_2_)" d="M43.2,32.9c0,2.8,2.3,5.1,5.1,5.1C48.3,35.2,46,32.9,43.2,32.9z" fill="#E875AE"/><path clip-path="url(#SVGID_2_)" d="M43.2,32.9c-2.8,0-5.1,2.3-5.1,5.1C40.9,37.9,43.2,35.7,43.2,32.9z" fill="#E875AE"/><path clip-path="url(#SVGID_2_)" d="M58.4,27.8c0,2.8,2.3,5.1,5.1,5.1C63.4,30.1,61.2,27.8,58.4,27.8z" fill="#E875AE"/><path clip-path="url(#SVGID_2_)" d="M68.5,27.8c-2.8,0-5.1,2.3-5.1,5.1C66.2,32.9,68.5,30.6,68.5,27.8z" fill="#E875AE"/><path clip-path="url(#SVGID_2_)" d="M63.4,32.9c0,2.8,2.3,5.1,5.1,5.1C68.5,35.2,66.2,32.9,63.4,32.9z" fill="#E875AE"/><path clip-path="url(#SVGID_2_)" d="M63.4,32.9c-2.8,0-5.1,2.3-5.1,5.1C61.2,37.9,63.4,35.7,63.4,32.9z" fill="#E875AE"/><path clip-path="url(#SVGID_2_)" d="M68.5,27.8c0,2.8,2.3,5.1,5.1,5.1C73.6,30.1,71.3,27.8,68.5,27.8z" fill="#E875AE"/><path clip-path="url(#SVGID_2_)" d="M78.6,27.8c-2.8,0-5.1,2.3-5.1,5.1C76.3,32.9,78.6,30.6,78.6,27.8z" fill="#E875AE"/><path clip-path="url(#SVGID_2_)" d="M73.6,32.9c0,2.8,2.3,5.1,5.1,5.1C78.6,35.2,76.3,32.9,73.6,32.9z" fill="#E875AE"/><path clip-path="url(#SVGID_2_)" d="M73.6,32.9c-2.8,0-5.1,2.3-5.1,5.1C71.3,37.9,73.6,35.7,73.6,32.9z" fill="#E875AE"/><path clip-path="url(#SVGID_2_)" d="M48.3,17.7c0,2.8,2.3,5.1,5.1,5.1C53.3,20,51.1,17.7,48.3,17.7z" fill="#E875AE"/><path clip-path="url(#SVGID_2_)" d="M58.4,17.7c-2.8,0-5.1,2.3-5.1,5.1C56.1,22.8,58.4,20.5,58.4,17.7z" fill="#E875AE"/><path clip-path="url(#SVGID_2_)" d="M53.3,22.8c0,2.8,2.3,5.1,5.1,5.1C58.4,25,56.1,22.8,53.3,22.8z" fill="#E875AE"/><path clip-path="url(#SVGID_2_)" d="M53.3,22.8c-2.8,0-5.1,2.3-5.1,5.1C51.1,27.8,53.3,25.6,53.3,22.8z" fill="#E875AE"/><path clip-path="url(#SVGID_2_)" d="M38.1,17.7c0,2.8,2.3,5.1,5.1,5.1C43.2,20,40.9,17.7,38.1,17.7z" fill="#E875AE"/><path clip-path="url(#SVGID_2_)" d="M48.3,17.7c-2.8,0-5.1,2.3-5.1,5.1C46,22.8,48.3,20.5,48.3,17.7z" fill="#E875AE"/><path clip-path="url(#SVGID_2_)" d="M43.2,22.8c0,2.8,2.3,5.1,5.1,5.1C48.3,25,46,22.8,43.2,22.8z" fill="#E875AE"/><path clip-path="url(#SVGID_2_)" d="M43.2,22.8c-2.8,0-5.1,2.3-5.1,5.1C40.9,27.8,43.2,25.6,43.2,22.8z" fill="#E875AE"/><path clip-path="url(#SVGID_2_)" d="M58.4,17.7c0,2.8,2.3,5.1,5.1,5.1C63.4,20,61.2,17.7,58.4,17.7z" fill="#E875AE"/><path clip-path="url(#SVGID_2_)" d="M68.5,17.7c-2.8,0-5.1,2.3-5.1,5.1C66.2,22.8,68.5,20.5,68.5,17.7z" fill="#E875AE"/><path clip-path="url(#SVGID_2_)" d="M63.4,22.8c0,2.8,2.3,5.1,5.1,5.1C68.5,25,66.2,22.8,63.4,22.8z" fill="#E875AE"/><path clip-path="url(#SVGID_2_)" d="M63.4,22.8c-2.8,0-5.1,2.3-5.1,5.1C61.2,27.8,63.4,25.6,63.4,22.8z" fill="#E875AE"/><path clip-path="url(#SVGID_2_)" d="M68.5,17.7c0,2.8,2.3,5.1,5.1,5.1C73.6,20,71.3,17.7,68.5,17.7z" fill="#E875AE"/><path clip-path="url(#SVGID_2_)" d="M78.6,17.7c-2.8,0-5.1,2.3-5.1,5.1C76.3,22.8,78.6,20.5,78.6,17.7z" fill="#E875AE"/><path clip-path="url(#SVGID_2_)" d="M73.6,22.8c0,2.8,2.3,5.1,5.1,5.1C78.6,25,76.3,22.8,73.6,22.8z" fill="#E875AE"/><path clip-path="url(#SVGID_2_)" d="M73.6,22.8c-2.8,0-5.1,2.3-5.1,5.1C71.3,27.8,73.6,25.6,73.6,22.8z" fill="#E875AE"/></g><path d="M42.7,104h3.8c0.7,0,1.4-0.8,1.4-1.5V20  c0-0.7-0.7-1-1.4-1h-3.8c-2.1,0-3.7,1.4-3.7,3.5V100C39,102,40.7,104,42.7,104z" fill="none" stroke="#3D3D3D" stroke-miterlimit="10" stroke-width="2"/><rect fill="none" height="85" stroke="#3D3D3D" stroke-miterlimit="10" stroke-width="2" width="26" x="48" y="19"/><rect fill="#FFFFFF" height="19" width="25" x="49" y="69"/><rect fill="none" height="18" stroke="#3D3D3D" stroke-miterlimit="10" stroke-width="2" width="26" x="48" y="69"/><line fill="none" stroke="#3D3D3D" stroke-miterlimit="10" stroke-width="2" x1="68" x2="54" y1="74" y2="74"/><line fill="none" stroke="#3D3D3D" stroke-miterlimit="10" stroke-width="2" x1="68" x2="54" y1="78" y2="78"/><line fill="none" stroke="#3D3D3D" stroke-miterlimit="10" stroke-width="2" x1="64" x2="58" y1="82" y2="82"/><rect fill="#E2E2E2" height="18" width="9" x="39" y="69"/><rect fill="none" height="18" stroke="#3D3D3D" stroke-miterlimit="10" stroke-width="2" width="9" x="39" y="69"/><rect fill="#FFFFFF" height="69" width="8" x="21" y="36"/><rect fill="none" height="69" stroke="#3D3D3D" stroke-miterlimit="10" stroke-width="2" width="8" x="21" y="36"/><path d="M28,105h-6l0,0c0,1.1,0.9,2,2,2h2  C27.1,107,28,106.1,28,105L28,105z" fill="none" stroke="#3D3D3D" stroke-miterlimit="10" stroke-width="2"/><rect fill="#DD3B86" height="23" width="8" x="21" y="20"/><rect fill="none" height="23" stroke="#3D3D3D" stroke-miterlimit="10" stroke-width="2" width="8" x="21" y="20"/><path d="M21,24.2c-2.2,0-4,2-4,4.3V49" fill="none" stroke="#3D3D3D" stroke-miterlimit="10" stroke-width="2"/><line fill="none" stroke="#3D3D3D" stroke-miterlimit="10" stroke-width="2" x1="25" x2="25" y1="57" y2="88"/></svg>