<?xml version="1.0" ?><svg viewBox="0 0 64 64" xmlns="http://www.w3.org/2000/svg"><g data-name="02-Sweater" id="_02-Sweater"><rect height="6" style="fill:#30912c" width="4" x="5" y="49"/><rect height="6" style="fill:#30912c" width="6" x="16.99" y="57"/><rect height="6" style="fill:#30912c" width="6" x="28.99" y="57"/><rect height="6" style="fill:#30912c" width="6.01" x="40.99" y="57"/><rect height="6" style="fill:#30912c" width="4" x="55" y="49"/><path d="M28,1,26,9H21c0-2.13,1.01-4.29,1.6-6.52A1.993,1.993,0,0,1,24.53,1Z" style="fill:#30912c"/><polygon points="32 1 32 9 26 9 28 1 32 1" style="fill:#147e30"/><polygon points="36 1 38 9 32 9 32 1 36 1" style="fill:#30912c"/><path d="M43,9H38L36,1h3.47A1.993,1.993,0,0,1,41.4,2.48C41.99,4.71,43,6.87,43,9Z" style="fill:#147e30"/><path d="M52,57v4a2.006,2.006,0,0,1-2,2H47V57Z" style="fill:#147e30"/><rect height="6" style="fill:#147e30" width="6" x="34.99" y="57"/><rect height="6" style="fill:#147e30" width="6" x="22.99" y="57"/><path d="M16.99,57v6H14a2.006,2.006,0,0,1-2-2V57Z" style="fill:#147e30"/><path d="M5,49v6H3a2.006,2.006,0,0,1-2-2V49Z" style="fill:#147e30"/><path d="M12,53a2.006,2.006,0,0,1-2,2H9V49h3Z" style="fill:#147e30"/><path d="M55,49v6H54a2.006,2.006,0,0,1-2-2V49Z" style="fill:#147e30"/><path d="M63,49v4a2.006,2.006,0,0,1-2,2H59V49Z" style="fill:#147e30"/><path d="M62.51,22.92a17.9,17.9,0,0,0-8.08-11.19l-.09-.06A17.959,17.959,0,0,0,44.91,9H19.09a17.959,17.959,0,0,0-9.43,2.67l-.09.06A18.066,18.066,0,0,0,1,27.06V49H12v8H52V49H63V27.06A17.831,17.831,0,0,0,62.51,22.92Z" style="fill:#30912c"/><path d="M63,26.913a17.806,17.806,0,0,0-.177-2.328c.044.311.079.625.106.94C62.963,25.984,62.993,26.445,63,26.913Z" style="fill:#328016"/><path d="M62.712,23.887c.04.228.074.458.1.689C62.785,24.346,62.753,24.115,62.712,23.887Z" style="fill:#328016"/><polygon points="62.818 24.584 62.817 24.576 62.819 24.585 62.818 24.584" style="fill:#328016"/><path d="M62.712,23.886c-.059-.324-.126-.647-.2-.966.076.319.143.642.2.967Z" style="fill:#328016"/><path d="M63,26.913h0v0Z" style="fill:#328016"/><path d="M55,23a3,3,0,0,0-3-3V49H63V46H59a4,4,0,0,1-4-4Z" style="fill:#0b6823"/><path d="M9,23a3,3,0,0,1,3-3V49H1V46H5a4,4,0,0,0,4-4Z" style="fill:#0b6823"/><path d="M17,25a5,5,0,0,0-5-5V57H52V53H31A14,14,0,0,1,17,39Z" style="fill:#147e30"/><path d="M25,6a3.97,3.97,0,0,1-3.039-1.427A14.69,14.69,0,0,0,21,9h5l.75-3Z" style="fill:#0b6823"/><polygon points="26.75 6 26 9 32 9 32 6 26.75 6" style="fill:#0d5619"/><polygon points="32 6 32 9 38 9 37.25 6 32 6" style="fill:#0b6823"/><path d="M39,6H37.25L38,9h5a14.69,14.69,0,0,0-.961-4.427A3.97,3.97,0,0,1,39,6Z" style="fill:#0d5619"/><rect height="2" style="fill:#0d5619" width="5" x="12" y="57"/><rect height="2" style="fill:#0d5619" width="5" x="47" y="57"/><rect height="2" style="fill:#0d5619" width="3" x="52" y="49"/><rect height="2" style="fill:#0d5619" width="3" x="9" y="49"/><rect height="2" style="fill:#0d5619" width="4" x="59" y="49"/><rect height="2" style="fill:#0d5619" width="4" x="1" y="49"/><rect height="2" style="fill:#0b6823" width="4" x="55" y="49"/><rect height="2" style="fill:#0b6823" width="4" x="5" y="49"/><rect height="2" style="fill:#0d5619" width="6" x="23" y="57"/><rect height="2" style="fill:#0d5619" width="6" x="35" y="57"/><rect height="2" style="fill:#0b6823" width="6" x="17" y="57"/><rect height="2" style="fill:#0b6823" width="6" x="29" y="57"/><rect height="2" style="fill:#0b6823" width="6" x="41" y="57"/><path d="M42,24v3a24.266,24.266,0,0,0-10-2,24.266,24.266,0,0,0-10,2V24s2-2,10-2S42,24,42,24Z" style="fill:#c0cee6"/><path d="M37,13a3,3,0,0,1,3,3,2.95,2.95,0,0,1-1.21,2.4C37.35,17.68,36,17,36,17c-.63,0-1.23.01-1.81.04A2.956,2.956,0,0,1,34,16,3,3,0,0,1,37,13Z" style="fill:#ecf3f9"/><path d="M27,39.52V46l-5-2,1.9-5.7A13.35,13.35,0,0,0,27,39.52Z" style="fill:#a21727"/><path d="M23.9,38.3A9.594,9.594,0,0,1,21,36l3-3,.02-.02a12.053,12.053,0,0,0,15.96,0L40,33l3,3s-3,4-10,4H31a16.3,16.3,0,0,1-4-.48A13.35,13.35,0,0,1,23.9,38.3Z" style="fill:#d61f34"/><path d="M22,24s0-6.38,12.19-6.96c.58-.03,1.18-.04,1.81-.04,0,0,1.35.68,2.79,1.4.4.2.82.41,1.21.6,2,1,2,5,2,5s-2-2-10-2S22,24,22,24Z" style="fill:#d61f34"/><path d="M32,25a24.266,24.266,0,0,1,10,2v2a5.729,5.729,0,0,1-2.02,3.98,12.053,12.053,0,0,1-15.96,0A5.729,5.729,0,0,1,22,29V27A24.266,24.266,0,0,1,32,25Z" style="fill:#ecf3f9"/><path d="M25,22.714A7.039,7.039,0,0,0,22,24v3a18.3,18.3,0,0,1,3-1.068Z" style="fill:#a8b6d2"/><path d="M25,29V25.932A18.3,18.3,0,0,0,22,27v2a5.729,5.729,0,0,0,2.02,3.98A11.76,11.76,0,0,0,32,36a12.319,12.319,0,0,0,1.5-.1,11.556,11.556,0,0,1-6.48-2.918A5.729,5.729,0,0,1,25,29Z" style="fill:#d5dfe9"/><path d="M33,40c7,0,10-4,10-4s5,4,5,8a2.652,2.652,0,0,1-3,3c0,3-5,6-13,6s-13-3-13-6a2.652,2.652,0,0,1-3-3c0-4,5-8,5-8a9.594,9.594,0,0,0,2.9,2.3L22,44l5,2V39.52A16.3,16.3,0,0,0,31,40Z" style="fill:#ecf3f9"/><path d="M44.417,40h0a.917.917,0,0,0-.85,1.264A16.738,16.738,0,0,1,45,47a3.314,3.314,0,0,0,1.969-.531,19.641,19.641,0,0,0-1.718-5.934A.908.908,0,0,0,44.417,40Z" style="fill:#d5dfe9"/><path d="M36,17c-.63,0-1.23.01-1.81.04C22,17.62,22,24,22,24a7.212,7.212,0,0,1,3.166-1.328C25.781,21.557,28.374,17.847,36,17Z" style="fill:#a21727"/><path d="M28.058,37.127C40,37.3,40,33,40,33l-.02-.02a12.053,12.053,0,0,1-15.96,0L24,33l-3,3a9.594,9.594,0,0,0,2.9,2.3,13.043,13.043,0,0,0,1.346.639A3.019,3.019,0,0,1,28.058,37.127Z" style="fill:#a21727"/><path d="M21,44a8.211,8.211,0,0,1,1.743-6.427A8.583,8.583,0,0,1,21,36s-5,4-5,8a2.652,2.652,0,0,0,3,3c0,3,5,6,13,6s13-3,13-6C33,56,22,49,21,44Z" style="fill:#d5dfe9"/><polyline points="12 20 12 57 52 57 52 20" style="fill:none;stroke:#000;stroke-linejoin:round;stroke-width:2px"/><path d="M41.4,2.484A1.991,1.991,0,0,0,39.471,1H24.529A1.991,1.991,0,0,0,22.6,2.484C22.012,4.706,21,6.866,21,9H43C43,6.866,41.988,4.706,41.4,2.484Z" style="fill:none;stroke:#000;stroke-linejoin:round;stroke-width:2px"/><line style="fill:none;stroke:#000;stroke-linejoin:round;stroke-width:2px" x1="28" x2="26" y1="1" y2="9"/><line style="fill:none;stroke:#000;stroke-linejoin:round;stroke-width:2px" x1="36" x2="38" y1="1" y2="9"/><line style="fill:none;stroke:#000;stroke-linejoin:round;stroke-width:2px" x1="32" x2="32" y1="1" y2="9"/><path d="M12,57v4a2,2,0,0,0,2,2H50a2,2,0,0,0,2-2V57" style="fill:none;stroke:#000;stroke-linejoin:round;stroke-width:2px"/><path d="M1,44v9a2,2,0,0,0,2,2h7a2,2,0,0,0,2-2V46" style="fill:none;stroke:#000;stroke-linejoin:round;stroke-width:2px"/><line style="fill:none;stroke:#000;stroke-linejoin:round;stroke-width:2px" x1="1" x2="1" y1="40" y2="42"/><path d="M21,9H19.1a18,18,0,0,0-9.434,2.67l-.095.058A18,18,0,0,0,1,27.058V38" style="fill:none;stroke:#000;stroke-linejoin:round;stroke-width:2px"/><line style="fill:none;stroke:#000;stroke-linejoin:round;stroke-width:2px" x1="1" x2="12" y1="49" y2="49"/><path d="M63,46v7a2,2,0,0,1-2,2H54a2,2,0,0,1-2-2V46" style="fill:none;stroke:#000;stroke-linejoin:round;stroke-width:2px"/><path d="M54.861,12A18,18,0,0,1,63,27.058V44" style="fill:none;stroke:#000;stroke-linejoin:round;stroke-width:2px"/><path d="M43,9h1.905a18.011,18.011,0,0,1,8.245,2" style="fill:none;stroke:#000;stroke-linejoin:round;stroke-width:2px"/><line style="fill:none;stroke:#000;stroke-linejoin:round;stroke-width:2px" x1="63" x2="52" y1="49" y2="49"/><path d="M42,29c0,3.314-4.477,7-10,7s-10-3.686-10-7V27a24.266,24.266,0,0,1,10-2,24.266,24.266,0,0,1,10,2Z" style="fill:none;stroke:#000;stroke-linejoin:round;stroke-width:2px"/><line style="fill:none;stroke:#000;stroke-linejoin:round;stroke-width:2px" x1="30" x2="30" y1="28" y2="30"/><line style="fill:none;stroke:#000;stroke-linejoin:round;stroke-width:2px" x1="34" x2="34" y1="28" y2="30"/><line style="fill:none;stroke:#000;stroke-linejoin:round;stroke-width:2px" x1="32" x2="32" y1="30" y2="32"/><path d="M40,33l3,3s-3,4-10,4H31c-7,0-10-4-10-4l3-3" style="fill:none;stroke:#000;stroke-linejoin:round;stroke-width:2px"/><polyline points="24 38 22 44 27 46 27 42" style="fill:none;stroke:#000;stroke-linejoin:round;stroke-width:2px"/><path d="M43,40s2,4,2,7-5,6-13,6-13-3-13-6,2-7,2-7" style="fill:none;stroke:#000;stroke-linejoin:round;stroke-width:2px"/><path d="M21,36s-5,4-5,8a2.652,2.652,0,0,0,3,3" style="fill:none;stroke:#000;stroke-linejoin:round;stroke-width:2px"/><path d="M43,36s5,4,5,8a2.652,2.652,0,0,1-3,3" style="fill:none;stroke:#000;stroke-linejoin:round;stroke-width:2px"/><polyline points="30 42 30 43 32 44 34 43 34 42" style="fill:none;stroke:#000;stroke-linejoin:round;stroke-width:2px"/><polyline points="30 46 30 47 32 48 34 47 34 46" style="fill:none;stroke:#000;stroke-linejoin:round;stroke-width:2px"/><path d="M22,27V24s2-2,10-2,10,2,10,2v3" style="fill:none;stroke:#000;stroke-linejoin:round;stroke-width:2px"/><path d="M22,24s0-7,14-7l4,2c2,1,2,5,2,5" style="fill:none;stroke:#000;stroke-linejoin:round;stroke-width:2px"/><path d="M38.79,18.4A2.95,2.95,0,0,0,40,16a3,3,0,0,0-6,0,2.956,2.956,0,0,0,.19,1.04" style="fill:none;stroke:#000;stroke-linejoin:round;stroke-width:2px"/></g></svg>