<?xml version="1.0" ?><svg height="512px" version="1.1" viewBox="0 0 512 512" width="512px" xmlns="http://www.w3.org/2000/svg" xmlns:xlink="http://www.w3.org/1999/xlink"><title/><desc/><defs/><g fill="none" fill-rule="evenodd" id="SVG" stroke="none" stroke-width="1"><g id="Watermelon"><g transform="translate(0.000000, 122.000000)"><path d="M255.54338,256.014998 C390.90991,256.014998 500.634645,146.078641 500.634645,10.4744162 L10.4521143,10.4744162 C10.4521143,146.078641 120.176849,256.014998 255.54338,256.014998" fill="#3BB777" id="Fill-1"/><path d="M458.841861,10.4723225 C458.841861,139.021024 360.213943,244.435146 234.648555,255.060304 C241.544882,255.646519 248.493453,256.012904 255.546514,256.012904 C390.902596,256.012904 500.63778,146.087015 500.63778,10.4723225 L458.841861,10.4723225 Z" fill="#229857" id="Fill-3"/><path d="M21.1278367,20.9362706 C26.603102,145.726911 129.661388,245.55105 255.550694,245.55105 C381.429551,245.55105 484.477388,145.726911 489.963102,20.9362706 L21.1278367,20.9362706 Z M255.550694,266.48732 C114.635755,266.48732 0,151.63094 0,10.4681353 C0,4.67925648 4.68114286,0 10.4489796,0 L500.641959,0 C506.409796,0 511.090939,4.67925648 511.090939,10.4681353 C511.090939,151.63094 396.455184,266.48732 255.550694,266.48732 L255.550694,266.48732 Z" fill="#454849" id="Fill-5"/><path d="M255.54338,211.559967 C366.396604,211.559967 456.257829,121.534004 456.257829,10.4670885 L54.8289306,10.4670885 C54.8289306,121.534004 144.690155,211.559967 255.54338,211.559967" fill="#E34361" id="Fill-7"/><path d="M65.5610776,20.9362706 C70.9945469,121.20007 154.137078,201.092879 255.544424,201.092879 C356.96222,201.092879 440.094302,121.20007 445.527771,20.9362706 L65.5610776,20.9362706 Z M255.544424,222.02915 C139.111445,222.02915 44.3809959,127.125035 44.3809959,10.4681353 C44.3809959,4.67925648 49.0516898,0 54.8299755,0 L456.269322,0 C462.037159,0 466.718302,4.67925648 466.718302,10.4681353 C466.718302,127.125035 371.987853,222.02915 255.544424,222.02915 L255.544424,222.02915 Z" fill="#454849" id="Fill-9"/><path d="M414.467135,10.4723225 C414.467135,114.462779 335.67138,199.987444 234.650645,210.466047 C241.515624,211.177881 248.485094,211.565202 255.548604,211.565202 C366.401829,211.565202 456.263053,121.52877 456.263053,10.4723225 L414.467135,10.4723225 Z" fill="#BC395B" id="Fill-11"/><path d="M65.5610776,20.9362706 C70.9945469,121.20007 154.137078,201.092879 255.544424,201.092879 C356.96222,201.092879 440.094302,121.20007 445.527771,20.9362706 L65.5610776,20.9362706 Z M255.544424,222.02915 C139.111445,222.02915 44.3809959,127.125035 44.3809959,10.4681353 C44.3809959,4.67925648 49.0516898,0 54.8299755,0 L456.269322,0 C462.037159,0 466.718302,4.67925648 466.718302,10.4681353 C466.718302,127.125035 371.987853,222.02915 255.544424,222.02915 L255.544424,222.02915 Z" fill="#454849" id="Fill-13"/><path d="M265.958922,104.831047 C265.958922,110.59899 261.298678,115.267778 255.54129,115.267778 C249.794351,115.267778 245.123657,110.59899 245.123657,104.831047 C245.123657,99.0631047 249.794351,82.4711103 255.54129,82.4711103 C261.298678,82.4711103 265.958922,99.0631047 265.958922,104.831047" fill="#454849" id="Fill-15"/><path d="M177.25022,87.3618231 C174.251363,92.2818467 175.787363,98.6988136 180.698384,101.703168 C185.598955,104.717991 192.014629,103.168707 195.013486,98.2591519 C198.022792,93.3391284 202.693486,76.7471339 197.782465,73.7323109 C192.881894,70.7279561 180.249078,82.4417995 177.25022,87.3618231" fill="#454849" id="Fill-17"/><path d="M144.429976,63.1134345 C139.299527,65.7200002 133.030139,63.6682457 130.428343,58.5283912 C127.826547,53.3885368 129.874547,47.1076556 135.004996,44.5010899 C140.135445,41.8945243 157.020996,38.5551891 159.622792,43.6950435 C162.224588,48.834898 149.560424,60.5068688 144.429976,63.1134345" fill="#454849" id="Fill-19"/><path d="M332.267102,87.3618231 C335.265959,92.2818467 333.729959,98.6988136 328.818939,101.703168 C323.918367,104.717991 317.502694,103.168707 314.503837,98.2591519 C311.494531,93.3391284 306.823837,76.7471339 311.734857,73.7323109 C316.635429,70.7279561 329.268245,82.4417995 332.267102,87.3618231" fill="#454849" id="Fill-21"/><path d="M365.088392,63.1134345 C370.218841,65.7200002 376.488229,63.6682457 379.090024,58.5283912 C381.69182,53.3885368 379.64382,47.1076556 374.513371,44.5010899 C369.382922,41.8945243 352.497371,38.5551891 349.895576,43.6950435 C347.29378,48.834898 359.957943,60.5068688 365.088392,63.1134345" fill="#454849" id="Fill-23"/><path d="M131.357257,120.352151 C129.351053,120.352151 127.355298,119.587978 125.819298,118.05963 C113.123788,105.361782 102.235951,88.3510619 94.3469714,68.8698621 C92.7169306,64.8500981 94.6499918,60.275523 98.6624,58.6320258 C102.674808,57.0199329 107.241012,58.956538 108.871053,62.9658338 C115.976359,80.5104285 125.673012,95.7206291 136.895216,106.94247 C139.956767,110.009634 139.956767,114.97153 136.905665,118.049162 C135.369665,119.587978 133.363461,120.352151 131.357257,120.352151" fill="#FEFEFE" id="Fill-25"/><path d="M99.5171265,35.479651 C103.832555,39.1434983 104.375902,45.6232741 100.70831,49.9466139 C97.0511673,54.2804219 90.583249,54.8142968 86.2678204,51.1504495 C81.9523918,47.4866021 81.4090449,41.0068264 85.0766367,36.6730184 C88.7337796,32.3496785 95.201698,31.8158036 99.5171265,35.479651" fill="#FEFEFE" id="Fill-27"/></g></g></g></svg>